<?xml version="1.0" standalone="no"?>
<!DOCTYPE svg PUBLIC "-//W3C//DTD SVG 20010904//EN"
 "http://www.w3.org/TR/2001/REC-SVG-20010904/DTD/svg10.dtd">
<svg version="1.0" xmlns="http://www.w3.org/2000/svg"
 width="220.000000pt" height="227.000000pt" viewBox="0 0 220.000000 227.000000"
 preserveAspectRatio="xMidYMid meet">

<g transform="translate(0.000000,227.000000) scale(0.100000,-0.100000)"
fill="white" stroke="none">
<path d="M948 2250 c-298 -48 -578 -225 -740 -471 -69 -104 -97 -160 -136
-269 -123 -350 -61 -764 159 -1061 60 -81 195 -212 269 -260 396 -261 889
-245 1258 41 362 279 518 755 398 1206 -104 385 -411 692 -793 790 -110 28
-314 40 -415 24z m416 -54 c383 -100 689 -421 776 -813 142 -638 -273 -1255
-904 -1342 -437 -61 -872 175 -1081 586 -45 88 -81 195 -100 296 -20 104 -19
311 1 417 84 446 426 793 861 875 120 22 322 14 447 -19z"/>
<path d="M837 2163 c-4 -3 -7 -15 -7 -25 0 -10 -5 -18 -11 -18 -19 0 -129 -52
-129 -61 0 -5 12 -3 26 3 21 10 27 9 35 -3 12 -20 11 -26 -7 -33 -13 -5 -15
-2 -11 13 3 14 1 18 -9 14 -8 -3 -14 -14 -14 -25 0 -17 5 -20 29 -15 25 5 28
3 24 -13 -4 -16 0 -20 18 -20 16 0 -3 -13 -54 -39 -240 -120 -406 -334 -474
-609 -25 -102 -22 -322 6 -427 135 -504 636 -786 1115 -628 207 69 401 239
499 438 70 142 97 262 97 424 -1 401 -254 742 -635 857 -79 24 -108 27 -230
28 -116 0 -153 -3 -217 -22 -79 -22 -113 -21 -104 5 3 8 1 23 -4 34 -9 15 -7
21 5 25 21 9 33 -5 15 -16 -13 -8 -12 -10 3 -10 22 0 34 27 18 43 -9 9 -17 8
-32 -1 -25 -16 -36 -10 -15 7 8 7 27 13 43 14 24 2 28 -2 31 -25 2 -16 8 -28
14 -28 6 0 8 13 4 35 -8 39 4 47 19 13 8 -17 19 -23 45 -24 35 -1 36 0 35 38
0 35 -2 39 -22 35 -13 -2 -28 2 -34 9 -12 14 -61 19 -72 7z m58 -13 c3 -5 2
-10 -4 -10 -5 0 -16 -3 -25 -6 -11 -4 -16 -1 -16 10 0 18 35 22 45 6z m49 -35
c5 -13 2 -14 -17 -4 -20 11 -21 11 -8 -4 12 -15 11 -17 -3 -17 -16 0 -22 21
-9 33 11 12 31 8 37 -8z m351 -136 c202 -49 375 -171 494 -349 293 -439 139
-1045 -324 -1275 -138 -68 -194 -80 -375 -80 -148 0 -159 2 -246 32 -280 98
-487 323 -560 610 -29 115 -33 290 -9 403 52 249 208 459 435 587 164 93 387
121 585 72z"/>
<path d="M1101 1936 c-7 -8 -11 -27 -9 -43 2 -22 9 -29 31 -31 21 -3 27 1 27
17 0 21 -17 37 -28 26 -3 -3 0 -10 7 -14 10 -7 10 -10 1 -16 -16 -10 -33 9
-28 31 3 13 11 18 26 17 25 -3 30 12 6 21 -21 8 -20 8 -33 -8z"/>
<path d="M1022 1900 c-10 -41 -5 -49 16 -28 10 10 15 10 22 -2 5 -8 11 -12 15
-9 7 8 -23 79 -34 79 -5 0 -13 -18 -19 -40z"/>
<path d="M1168 1900 c-2 -22 0 -40 4 -40 5 0 8 7 8 15 0 8 5 15 10 15 6 0 10
-6 10 -14 0 -8 4 -18 10 -21 6 -3 9 4 9 17 -1 13 -1 28 1 33 6 24 -2 35 -24
35 -21 0 -24 -6 -28 -40z m39 4 c-9 -9 -28 6 -21 18 4 6 10 6 17 -1 6 -6 8
-13 4 -17z"/>
<path d="M935 1924 c-13 -5 -7 -84 6 -84 5 0 9 9 9 20 0 11 5 20 10 20 6 0 10
4 10 10 0 5 -7 7 -15 4 -8 -4 -15 -1 -15 5 0 6 7 11 15 11 8 0 15 5 15 10 0
10 -16 12 -35 4z"/>
<path d="M1238 1890 c-2 -22 0 -40 4 -40 5 0 8 11 8 24 0 13 3 31 6 40 3 9 2
16 -4 16 -5 0 -12 -18 -14 -40z"/>
<path d="M1270 1895 c-5 -14 -7 -31 -4 -39 10 -27 54 -31 54 -5 0 6 -9 7 -20
4 -15 -5 -20 -2 -20 12 0 10 5 25 10 33 9 13 11 13 19 0 11 -16 27 -7 16 9
-12 20 -45 12 -55 -14z"/>
<path d="M861 1896 c-31 -37 13 -97 46 -63 13 13 15 22 7 44 -11 32 -35 41
-53 19z m39 -30 c0 -31 -16 -42 -28 -19 -12 22 -5 43 14 43 8 0 14 -10 14 -24z"/>
<path d="M1344 1886 c-9 -37 -1 -70 18 -74 20 -4 42 40 35 67 -3 9 -8 2 -12
-16 -11 -50 -37 -43 -29 7 7 43 -2 55 -12 16z"/>
<path d="M1409 1839 c-13 -43 -5 -59 31 -59 12 1 11 4 -3 14 -14 11 -17 22
-12 50 10 49 -1 46 -16 -5z"/>
<path d="M790 1854 c0 -11 -6 -14 -22 -8 l-23 6 23 -24 c12 -13 22 -30 22 -36
0 -7 3 -12 8 -12 4 0 7 20 7 45 0 25 -3 45 -7 45 -5 0 -8 -7 -8 -16z"/>
<path d="M1473 1827 c1 -12 -2 -33 -7 -47 -7 -24 -6 -24 8 -6 9 11 16 26 16
33 0 7 6 10 15 7 25 -10 17 12 -9 24 -21 9 -24 8 -23 -11z"/>
<path d="M704 1818 c-16 -12 -30 -23 -32 -24 -6 -3 32 -74 40 -74 11 0 10 7
-8 42 -13 25 -14 32 -2 39 9 6 18 -2 31 -24 l18 -32 -7 30 c-4 17 -6 38 -6 48
1 22 1 21 -34 -5z"/>
<path d="M1028 1808 c-148 -14 -260 -70 -379 -188 -72 -71 -93 -101 -132 -180
-60 -122 -82 -229 -74 -356 24 -364 312 -644 662 -644 282 0 534 185 632 465
25 73 28 92 27 220 0 125 -3 149 -27 220 -103 309 -388 495 -709 463z m252
-44 c120 -35 246 -122 324 -223 96 -124 140 -254 140 -411 0 -211 -82 -390
-239 -519 -115 -94 -251 -143 -400 -143 -178 -1 -306 53 -436 182 -69 68 -94
102 -127 170 -62 125 -75 191 -70 335 6 138 26 210 90 319 44 75 131 166 205
215 43 29 48 30 54 14 3 -10 1 -20 -5 -22 -22 -7 -36 -35 -36 -71 0 -55 16
-69 87 -76 l63 -7 -16 32 c-30 60 -28 60 217 61 175 0 220 -3 216 -13 -3 -7 3
-13 14 -13 13 0 15 3 7 13 -8 10 -4 13 21 13 17 0 31 -5 31 -11 0 -5 -4 -7
-10 -4 -11 7 -11 5 -14 -40 -1 -21 4 -30 14 -30 11 0 15 12 16 42 2 50 -30 89
-62 76 -17 -6 -17 -8 6 -14 14 -4 -86 -7 -222 -8 -237 -1 -247 -2 -253 -21 -3
-11 -3 -30 0 -42 7 -20 5 -21 -40 -15 -26 4 -51 9 -56 13 -10 6 -12 64 -3 88
8 20 89 22 114 4 9 -7 4 -2 -11 12 -15 14 -29 36 -31 49 -2 20 3 26 37 38 102
35 268 39 375 7z m-430 -43 c0 -5 3 -16 6 -25 3 -9 2 -16 -4 -16 -5 0 -12 11
-14 25 -3 14 -1 25 3 25 5 0 9 -4 9 -9z m570 -141 c0 -5 -2 -10 -4 -10 -3 0
-8 5 -11 10 -3 6 -1 10 4 10 6 0 11 -4 11 -10z m0 -30 c0 -5 -4 -10 -10 -10
-5 0 -10 5 -10 10 0 6 5 10 10 10 6 0 10 -4 10 -10z"/>
<path d="M1056 1663 c-4 -5 -33 -11 -64 -14 l-57 -6 61 -2 c47 -1 63 3 68 14
6 16 3 19 -8 8z"/>
<path d="M1116 1655 c5 -12 27 -15 115 -15 60 0 109 3 109 8 0 4 -42 6 -94 4
-56 -2 -103 1 -115 8 -17 9 -20 8 -15 -5z"/>
<path d="M1068 1555 c-4 -19 -1 -25 13 -25 14 0 19 7 19 25 0 15 -6 25 -14 25
-7 0 -16 -11 -18 -25z"/>
<path d="M1053 1509 c13 -8 17 -23 17 -64 0 -51 -7 -65 -23 -48 -4 3 -1 13 6
21 10 13 9 14 -3 7 -8 -5 -22 -8 -30 -7 -9 1 -42 -7 -74 -18 -67 -23 -116 -26
-134 -8 -19 19 -15 6 28 -86 30 -65 38 -94 33 -117 -5 -25 -2 -31 16 -36 27
-7 27 -40 0 -48 -15 -5 -19 -12 -15 -28 3 -12 6 -26 6 -31 0 -4 11 -5 24 -2
19 5 26 1 31 -14 4 -12 1 -28 -6 -37 -11 -13 -10 -17 6 -29 22 -16 45 -18 45
-4 0 14 13 12 36 -5 17 -14 14 -15 -46 -14 -98 1 -110 0 -110 -11 0 -5 8 -10
19 -10 18 0 17 -5 -9 -87 -15 -49 -25 -93 -23 -100 8 -21 57 -35 86 -24 34 13
34 32 3 134 l-24 77 51 0 c28 0 66 -5 84 -12 29 -11 33 -16 33 -49 0 -21 4
-40 9 -43 5 -3 7 19 6 48 l-3 54 85 1 c77 1 84 -1 78 -17 -22 -50 -52 -158
-48 -168 7 -18 52 -35 79 -28 41 11 44 32 14 127 l-28 87 24 0 c13 0 24 5 24
10 0 6 -26 10 -59 10 -45 0 -60 4 -65 16 -9 24 3 35 24 21 16 -9 23 -8 37 6
15 14 15 21 5 37 -18 29 -15 40 13 40 15 0 25 6 25 14 0 8 3 21 6 29 3 10 -2
18 -15 22 -25 8 -28 35 -5 35 13 0 15 7 11 33 -3 23 6 55 34 116 42 90 46 102
27 83 -18 -18 -64 -15 -136 10 -62 21 -66 21 -94 5 l-30 -17 7 48 c7 55 -9 82
-48 82 -20 -1 -20 -2 -4 -11z m-16 -145 c2 -6 -5 -14 -16 -17 -14 -3 -18 -11
-14 -25 6 -26 -11 -36 -36 -20 -17 10 -23 9 -41 -7 -18 -16 -19 -20 -5 -35 18
-20 9 -54 -12 -46 -8 3 -16 6 -19 6 -4 0 -64 129 -64 137 0 2 8 2 18 -1 10 -3
38 0 62 8 52 17 122 16 127 0z m213 1 c30 -8 63 -12 73 -9 19 6 18 4 -22 -88
-15 -35 -26 -48 -41 -48 -22 0 -29 33 -9 45 7 5 4 14 -7 26 -19 21 -40 25 -46
7 -8 -22 -37 -1 -31 22 4 16 0 23 -16 27 -11 3 -21 9 -21 12 0 25 41 27 120 6z
m-91 -88 c13 -7 38 -29 55 -50 24 -31 30 -47 30 -90 1 -63 -17 -100 -67 -140
-30 -25 -46 -31 -85 -30 -95 1 -153 57 -160 152 -8 132 111 214 227 158z m-26
-334 c-7 -2 -19 -2 -25 0 -7 3 -2 5 12 5 14 0 19 -2 13 -5z m-204 -111 c17
-56 17 -62 2 -63 -13 -1 -13 -2 2 -6 32 -8 12 -28 -29 -28 -38 0 -39 1 -37 33
2 35 32 136 39 130 2 -2 12 -32 23 -66z m360 0 l19 -62 -22 -1 c-20 -2 -20 -2
2 -6 35 -7 20 -28 -21 -31 -26 -2 -39 1 -43 11 -5 15 34 162 41 155 3 -2 13
-32 24 -66z"/>
<path d="M1040 1270 c-11 -7 -3 -9 27 -8 24 2 43 6 43 11 0 10 -52 8 -70 -3z"/>
<path d="M1131 1264 c0 -11 3 -14 6 -6 3 7 2 16 -1 19 -3 4 -6 -2 -5 -13z"/>
<path d="M998 1248 c-28 -24 -48 -62 -48 -95 0 -45 15 -42 16 3 0 25 8 43 27
60 35 32 39 59 5 32z"/>
<path d="M1150 1253 c0 -4 12 -18 28 -31 20 -17 22 -22 7 -16 -26 10 -122 15
-162 9 -29 -5 -32 -9 -38 -58 -3 -29 -8 -68 -11 -88 l-5 -36 73 5 c40 2 80 4
88 5 8 0 28 -2 43 -6 l28 -8 -6 79 c-6 60 -4 81 6 87 9 6 11 4 6 -8 -3 -9 -2
-19 3 -22 21 -13 9 33 -16 63 -25 30 -44 41 -44 25z m-72 -123 l3 -75 -49 -2
-48 -2 3 32 c14 125 16 127 68 124 18 -2 20 -10 23 -77z m88 72 c6 -4 14 -39
17 -78 l7 -70 -50 0 -50 1 0 71 c0 39 3 74 7 77 9 9 55 9 69 -1z"/>
<path d="M1210 1134 c0 -8 5 -12 10 -9 6 3 10 10 10 16 0 5 -4 9 -10 9 -5 0
-10 -7 -10 -16z"/>
<path d="M1442 1278 c-15 -18 -16 -38 -8 -80 9 -42 26 -51 26 -15 0 12 7 30
14 40 18 24 49 9 71 -33 25 -49 20 -63 -20 -58 -19 2 -35 1 -35 -2 0 -3 -18
-4 -40 -2 -42 4 -55 -12 -19 -23 11 -4 24 -16 28 -28 5 -12 16 -22 26 -22 10
0 20 -6 23 -13 3 -10 -3 -13 -21 -10 -25 3 -67 -25 -67 -45 0 -6 26 -8 68 -4
37 3 86 2 110 -2 35 -7 45 -6 49 7 4 9 -3 22 -15 33 -15 12 -22 28 -22 52 0
42 -25 114 -48 140 -15 17 -98 77 -106 77 -2 0 -8 -6 -14 -12z m125 -245 c-3
-3 -11 -2 -17 2 -8 5 -7 11 2 22 12 15 13 14 16 -1 2 -10 1 -20 -1 -23z"/>
<path d="M805 1219 c-11 -16 -1 -19 13 -3 7 8 8 14 3 14 -5 0 -13 -5 -16 -11z"/>
<path d="M845 1180 c-3 -5 -1 -10 4 -10 6 0 11 5 11 10 0 6 -2 10 -4 10 -3 0
-8 -4 -11 -10z"/>
<path d="M552 1160 c0 -14 3 -45 7 -70 6 -34 9 -37 9 -15 1 17 -3 48 -7 70 -6
25 -9 31 -9 15z"/>
<path d="M621 1101 c-8 -5 -9 -11 -3 -15 5 -3 12 1 16 9 6 17 6 18 -13 6z"/>
<path d="M1080 745 c0 -27 2 -46 4 -44 8 8 10 78 3 85 -4 4 -7 -14 -7 -41z"/>
<path d="M982 648 c-15 -15 -16 -32 -2 -23 6 4 10 -7 10 -25 0 -18 4 -29 10
-25 12 7 14 85 2 85 -4 0 -13 -5 -20 -12z"/>
<path d="M1037 654 c-15 -15 -6 -45 16 -54 l22 -9 -24 0 c-19 -1 -22 -4 -14
-12 23 -23 44 -2 41 38 -3 36 -23 54 -41 37z m24 -27 c-1 -12 -15 -9 -19 4 -3
6 1 10 8 8 6 -3 11 -8 11 -12z"/>
<path d="M1099 639 c-8 -16 -8 -28 0 -45 12 -28 23 -30 42 -8 11 14 10 19 -10
35 -18 15 -20 19 -7 19 10 0 14 5 11 10 -10 16 -23 12 -36 -11z m31 -39 c0 -5
-4 -10 -10 -10 -5 0 -10 5 -10 10 0 6 5 10 10 10 6 0 10 -4 10 -10z"/>
<path d="M1164 646 c-9 -25 0 -71 15 -71 21 0 35 29 27 58 -7 29 -33 36 -42
13z m26 -31 c0 -14 -4 -25 -10 -25 -5 0 -10 11 -10 25 0 14 5 25 10 25 6 0 10
-11 10 -25z"/>
<path d="M1517 1780 c-14 -32 -14 -37 0 -52 19 -21 39 -9 54 30 14 37 3 38
-16 2 -11 -22 -20 -29 -27 -22 -7 7 -6 17 2 31 6 12 9 27 7 34 -3 7 -12 -4
-20 -23z"/>
<path d="M624 1755 c-8 -21 6 -37 27 -32 12 3 19 0 19 -10 0 -9 -6 -13 -15 -9
-8 3 -15 1 -15 -5 0 -21 45 -4 48 19 3 18 -1 22 -22 22 -29 0 -35 16 -8 23 12
4 11 5 -6 6 -12 0 -25 -6 -28 -14z"/>
<path d="M1576 1729 c-18 -30 -14 -57 4 -29 7 11 10 9 10 -12 0 -15 5 -30 10
-33 6 -3 10 3 10 14 0 12 4 21 9 21 18 0 21 33 5 51 -23 25 -27 24 -48 -12z
m41 -15 c-9 -9 -28 6 -21 18 4 6 10 6 17 -1 6 -6 8 -13 4 -17z"/>
<path d="M572 1708 c-7 -7 -12 -17 -12 -22 0 -15 49 -73 50 -59 0 6 -5 15 -10
18 -17 10 -2 24 20 18 11 -3 20 0 20 6 0 6 -7 11 -15 11 -8 0 -14 3 -14 8 5
32 -16 43 -39 20z m28 -16 c0 -13 -12 -22 -22 -16 -10 6 -1 24 13 24 5 0 9 -4
9 -8z"/>
<path d="M1636 1674 c-16 -22 -17 -29 -5 -50 7 -13 17 -24 22 -24 5 0 2 11 -7
25 -9 14 -12 25 -7 25 5 0 13 -4 16 -10 12 -19 26 -11 15 9 -15 29 -12 39 5
17 8 -11 18 -17 22 -13 6 7 -25 47 -36 47 -3 0 -14 -12 -25 -26z"/>
<path d="M519 1647 c-16 -21 -15 -24 8 -51 23 -27 25 -28 43 -11 11 10 20 23
20 28 0 6 -8 3 -18 -6 -24 -22 -37 -9 -15 15 9 10 11 18 5 18 -6 0 -14 -4 -17
-10 -3 -5 -11 -10 -17 -10 -6 0 -4 8 5 18 10 10 17 22 17 25 0 14 -15 6 -31
-16z"/>
<path d="M494 1595 c2 -11 7 -28 11 -39 7 -16 6 -17 -13 -7 -25 13 -32 14 -32
2 0 -11 61 -34 68 -26 3 3 -4 24 -16 48 -13 23 -21 33 -18 22z"/>
<path d="M1720 1588 c0 -6 -3 -8 -7 -5 -7 7 -33 -11 -33 -23 0 -4 8 -16 18
-27 14 -16 20 -18 29 -8 6 7 9 16 5 20 -4 3 1 11 10 16 10 5 15 16 12 24 -7
18 -34 20 -34 3z m-13 -40 c-3 -8 -6 -5 -6 6 -1 11 2 17 5 13 3 -3 4 -12 1
-19z"/>
<path d="M440 1524 c0 -11 45 -43 60 -44 9 0 3 10 -15 25 -30 24 -45 31 -45
19z"/>
<path d="M1786 1496 c3 -9 -3 -20 -15 -28 -12 -7 -21 -17 -21 -22 0 -4 11 -1
24 7 17 12 26 13 35 4 14 -14 14 -5 -1 28 -12 26 -32 36 -22 11z"/>
<path d="M430 1491 c0 -5 8 -15 18 -20 14 -9 13 -10 -10 -11 -16 0 -28 -6 -28
-12 1 -16 49 -52 58 -43 4 4 -2 13 -12 21 -19 14 -19 14 1 14 35 0 36 17 3 40
-16 12 -30 17 -30 11z"/>
<path d="M1793 1418 c-13 -6 -23 -16 -23 -22 0 -26 13 -55 21 -50 5 3 5 13 -1
23 -14 27 2 35 18 9 13 -23 13 -23 7 5 -6 32 10 37 18 5 4 -12 9 -20 12 -16 7
7 -12 58 -22 57 -5 0 -18 -5 -30 -11z"/>
<path d="M390 1401 c0 -4 12 -13 26 -20 14 -6 24 -17 21 -24 -5 -13 -11 -13
-39 -2 -11 4 -18 3 -18 -4 0 -13 45 -25 59 -16 15 9 14 40 -1 52 -20 15 -48
23 -48 14z"/>
<path d="M1806 1334 c-9 -8 -16 -19 -16 -24 0 -20 13 -40 27 -40 13 0 13 3 3
15 -15 18 -6 45 15 45 9 0 15 -9 15 -26 0 -14 4 -23 10 -19 6 3 10 12 10 20 0
15 -27 45 -40 45 -5 0 -16 -7 -24 -16z"/>
<path d="M361 1280 c-1 -8 -4 -26 -8 -40 -6 -22 -5 -24 10 -11 9 7 26 11 37 8
11 -3 23 -1 26 4 3 5 -8 12 -25 15 -16 4 -32 14 -34 23 -4 13 -5 13 -6 1z"/>
<path d="M1835 1253 c-31 -8 -42 -23 -17 -23 13 0 22 -6 22 -15 0 -8 -7 -15
-15 -15 -8 0 -15 -4 -15 -10 0 -11 15 -12 48 -4 25 7 30 24 7 24 -8 0 -15 7
-15 15 0 8 7 15 16 15 8 0 12 5 9 10 -6 10 -8 11 -40 3z"/>
<path d="M350 1190 c0 -5 10 -10 22 -10 l22 0 -22 -16 c-32 -22 -27 -34 13
-34 19 0 35 5 35 10 0 6 -10 10 -22 10 l-22 0 22 16 c32 22 27 34 -13 34 -19
0 -35 -4 -35 -10z"/>
<path d="M1815 1150 c3 -5 14 -10 23 -11 14 0 13 -3 -5 -16 -33 -22 -28 -33
12 -33 19 0 35 4 35 9 0 5 -10 7 -22 5 l-23 -5 23 17 c34 25 28 44 -14 44 -21
0 -33 -4 -29 -10z"/>
<path d="M378 1092 c-36 -22 -35 -30 5 -47 38 -16 40 -15 28 17 -7 18 -6 29 2
37 17 17 -4 13 -35 -7z m12 -22 c0 -5 -5 -10 -11 -10 -5 0 -7 5 -4 10 3 6 8
10 11 10 2 0 4 -4 4 -10z"/>
<path d="M1810 1050 c-17 -32 -3 -60 30 -60 20 0 31 6 35 20 8 26 -11 60 -35
60 -11 0 -24 -9 -30 -20z m48 -22 c-2 -13 -10 -23 -18 -23 -8 0 -16 10 -18 23
-3 17 2 22 18 22 16 0 21 -5 18 -22z"/>
<path d="M360 990 c0 -25 4 -30 24 -30 33 0 57 10 50 21 -3 5 -9 7 -14 4 -5
-3 -11 4 -15 15 -3 11 -15 20 -26 20 -14 0 -19 -7 -19 -30z m26 -7 c-10 -10
-19 5 -10 18 6 11 8 11 12 0 2 -7 1 -15 -2 -18z"/>
<path d="M1789 954 c-11 -32 -11 -34 1 -34 6 0 10 7 10 16 0 13 7 15 30 11 39
-8 39 5 -1 20 -28 11 -31 10 -40 -13z"/>
<path d="M1772 888 c-19 -19 -14 -45 11 -63 20 -15 23 -14 39 5 32 39 -15 93
-50 58z m43 -33 c0 -28 -29 -25 -33 3 -3 19 0 23 15 20 10 -2 18 -12 18 -23z"/>
<path d="M422 870 c-17 -14 -21 -25 -16 -44 7 -29 12 -31 49 -14 29 13 32 28
8 57 -18 20 -18 20 -41 1z m38 -26 c0 -8 -4 -12 -10 -9 -5 3 -10 13 -10 21 0
8 5 12 10 9 6 -3 10 -13 10 -21z m-26 -9 c3 -8 1 -15 -4 -15 -6 0 -10 7 -10
15 0 8 2 15 4 15 2 0 6 -7 10 -15z"/>
<path d="M1735 804 c-18 -18 -20 -50 -4 -60 6 -3 15 0 20 7 12 19 11 32 -1 24
-5 -3 -10 -2 -10 3 0 14 11 21 26 15 16 -6 19 -43 4 -43 -5 0 -10 -4 -10 -10
0 -17 19 -11 30 10 21 39 -25 84 -55 54z"/>
<path d="M486 725 c-13 -19 -14 -30 -6 -45 25 -47 84 -3 61 46 -14 31 -34 30
-55 -1z m42 -17 c-4 -30 -38 -37 -38 -9 0 15 4 19 17 14 11 -4 14 -3 9 5 -4 7
-2 12 4 12 6 0 10 -10 8 -22z"/>
<path d="M1690 724 c0 -3 4 -12 9 -22 5 -9 14 -28 20 -42 l11 -25 -3 27 c-3
21 1 28 16 30 15 2 11 7 -17 19 -20 9 -36 15 -36 13z"/>
<path d="M1567 564 c-12 -12 -8 -42 6 -47 21 -8 39 8 35 29 -3 19 -29 30 -41
18z"/>
<path d="M604 545 c-8 -19 3 -35 26 -35 19 0 30 17 23 38 -6 17 -42 15 -49 -3z"/>
<path d="M781 449 c-13 -39 -14 -60 -1 -38 6 10 18 15 33 12 30 -6 43 20 21
42 -24 23 -41 18 -53 -16z m40 -2 c-1 -12 -15 -9 -19 4 -3 6 1 10 8 8 6 -3 11
-8 11 -12z"/>
<path d="M1397 468 c-15 -11 -15 -18 -5 -50 6 -21 15 -38 20 -38 5 0 6 9 3 20
-7 23 13 28 33 8 6 -6 15 -8 19 -4 4 4 1 11 -7 16 -8 5 -15 19 -15 32 0 26
-23 34 -48 16z m33 -17 c0 -5 -7 -11 -15 -15 -15 -5 -20 5 -8 17 9 10 23 9 23
-2z"/>
<path d="M845 415 l-27 -36 25 6 c18 5 28 2 35 -12 6 -10 13 -16 16 -13 7 8
-5 90 -14 90 -4 0 -20 -16 -35 -35z m31 -12 c-10 -10 -19 5 -10 18 6 11 8 11
12 0 2 -7 1 -15 -2 -18z"/>
<path d="M1326 428 c-3 -13 -6 -36 -6 -52 l0 -30 21 23 c16 17 24 20 35 10 20
-17 17 -4 -8 36 -27 41 -34 43 -42 13z m29 -17 c3 -5 1 -12 -5 -16 -5 -3 -10
1 -10 9 0 18 6 21 15 7z"/>
<path d="M922 390 c-10 -42 0 -57 13 -17 6 22 7 21 17 -5 13 -38 26 -35 34 7
8 46 29 39 28 -9 -1 -20 3 -36 7 -36 5 0 9 9 9 19 0 31 11 51 27 51 11 0 14
-9 11 -35 -2 -19 0 -35 4 -35 4 0 8 12 8 28 l0 27 20 -32 c11 -18 22 -33 25
-33 3 0 4 21 4 48 -1 41 -2 43 -8 17 l-8 -30 -12 26 c-21 43 -115 55 -127 17
-7 -23 -7 -22 -16 5 -13 38 -24 34 -36 -13z"/>
<path d="M1238 419 c-22 -12 -23 -52 -4 -69 23 -18 61 -8 64 18 3 17 -2 22
-17 22 -12 0 -21 -4 -21 -10 0 -5 5 -10 12 -10 9 0 9 -3 1 -11 -16 -16 -33 -2
-33 28 0 22 3 24 25 19 27 -7 35 8 9 18 -19 7 -15 8 -36 -5z"/>
<path d="M1152 370 c-5 -23 -6 -40 -1 -40 5 0 9 5 9 10 0 14 38 12 43 -2 2 -7
7 -10 11 -7 10 9 -25 79 -40 79 -6 0 -16 -18 -22 -40z m32 5 c3 -8 1 -15 -4
-15 -6 0 -10 7 -10 15 0 8 2 15 4 15 2 0 6 -7 10 -15z"/>
<path d="M1341 2161 c-9 -6 -10 -11 -2 -15 6 -4 11 -2 11 4 0 6 5 8 10 5 6 -3
10 -10 10 -15 0 -9 -25 -8 -75 4 -29 6 -31 5 -33 -24 -1 -17 3 -30 9 -30 6 0
9 -6 6 -13 -3 -9 4 -14 23 -14 23 0 29 6 34 29 9 46 27 33 20 -14 -7 -48 4
-45 21 5 7 20 8 42 2 60 -10 29 -14 31 -36 18z m-26 -51 c0 -8 -8 -16 -17 -18
-13 -2 -18 3 -18 18 0 15 5 20 18 18 9 -2 17 -10 17 -18z"/>
<path d="M1029 2118 c5 -38 9 -43 34 -46 15 -2 27 1 27 6 0 6 -9 8 -20 5 -17
-5 -20 0 -20 31 0 25 4 36 15 36 9 0 15 -10 15 -26 0 -14 4 -23 10 -19 6 3 10
15 10 26 0 15 7 19 35 19 29 0 35 -4 33 -17 -4 -21 -19 -34 -31 -26 -4 3 0 11
10 19 14 10 15 13 3 14 -8 0 -21 -4 -29 -9 -13 -8 -13 -12 -1 -26 7 -9 22 -14
31 -12 10 3 20 0 22 -7 7 -17 14 -4 20 37 l6 37 -88 0 -87 0 5 -42z"/>
<path d="M1400 2111 c0 -4 10 -13 23 -20 l22 -12 -23 5 c-15 3 -26 -2 -33 -15
-13 -26 -5 -36 38 -48 38 -11 52 -3 53 27 0 6 7 12 16 12 9 0 14 -6 11 -12
-14 -39 -17 -58 -9 -58 5 0 14 11 20 25 6 14 17 25 23 25 11 0 9 -16 -6 -52
-11 -28 10 -21 23 7 14 30 20 31 52 4 21 -17 21 -20 5 -14 -34 11 -39 10 -43
-7 -2 -12 6 -22 22 -30 23 -10 28 -9 40 8 21 28 31 9 12 -22 -10 -14 -15 -29
-11 -32 4 -4 11 1 16 10 5 9 17 24 25 33 9 9 15 17 13 19 -2 1 -15 10 -28 19
-14 9 -26 26 -28 38 -2 13 -8 28 -14 36 -13 15 -49 18 -49 3 0 -23 -32 -8 -41
20 -6 17 -15 30 -20 30 -6 0 -5 -9 1 -20 13 -25 14 -25 -54 5 -31 14 -56 21
-56 16z m70 -39 c0 -5 -6 -17 -14 -27 -11 -16 -18 -17 -37 -8 -17 8 -19 12 -8
12 9 1 22 8 29 16 13 16 30 20 30 7z m148 -45 c3 -16 1 -17 -17 -5 -25 16 -27
31 -4 26 10 -2 19 -11 21 -21z m-3 -57 c3 -5 -1 -10 -9 -10 -9 0 -16 5 -16 10
0 6 4 10 9 10 6 0 13 -4 16 -10z"/>
<path d="M599 2016 c-48 -30 -128 -90 -129 -97 -1 -13 50 -31 67 -24 10 5 24
7 31 6 16 -3 15 11 -3 35 -8 10 -15 22 -15 26 0 11 61 51 67 44 4 -4 -3 -13
-15 -22 -12 -8 -22 -22 -22 -30 0 -19 28 -30 43 -15 8 8 7 11 -6 11 -21 0 -22
13 -2 30 13 11 18 10 29 -5 20 -27 24 -4 6 31 l-16 32 -35 -22z m-56 -80 c8
-21 -17 -40 -31 -23 -9 10 -8 17 0 25 16 16 25 15 31 -2z"/>
<path d="M510 1990 c0 -5 5 -10 10 -10 6 0 10 5 10 10 0 6 -4 10 -10 10 -5 0
-10 -4 -10 -10z"/>
<path d="M1700 1942 c0 -5 10 -16 23 -25 20 -14 21 -16 5 -32 -9 -10 -21 -14
-27 -11 -17 11 -13 29 5 22 10 -4 14 -1 12 6 -7 20 -37 21 -45 2 -4 -10 0 -22
10 -29 10 -7 17 -17 17 -24 0 -14 17 -15 25 -1 10 16 35 12 35 -6 0 -11 -5
-14 -17 -10 -17 7 -17 6 -1 -10 17 -17 38 -12 38 10 0 8 -7 19 -15 26 -8 7
-15 17 -15 23 0 6 14 -2 30 -18 17 -16 30 -24 30 -18 0 6 -25 32 -55 58 -30
25 -55 42 -55 37z"/>
<path d="M410 1865 c-10 -12 -10 -15 4 -15 9 0 16 -4 16 -9 0 -15 -18 -23 -25
-12 -10 17 -35 0 -34 -23 1 -16 2 -17 6 -3 2 9 9 17 15 17 6 0 8 -10 4 -24 -3
-14 -1 -28 4 -31 16 -10 41 16 35 36 -6 19 10 35 20 19 4 -6 11 -8 16 -5 5 3
0 16 -11 27 -11 12 -20 25 -20 30 0 13 -17 9 -30 -7z m10 -75 c0 -5 -5 -10
-11 -10 -5 0 -7 5 -4 10 3 6 8 10 11 10 2 0 4 -4 4 -10z"/>
<path d="M1847 1813 c-9 -2 -15 -9 -11 -14 3 -5 -5 -18 -18 -28 -13 -11 -20
-23 -15 -27 4 -4 17 2 30 14 l23 22 22 -30 c30 -40 28 -58 -2 -23 -21 24 -25
26 -31 11 -7 -17 14 -78 26 -78 4 0 12 7 19 15 7 8 19 15 27 15 14 0 14 3 1
23 -11 16 -12 26 -5 38 8 13 6 24 -6 43 -17 26 -25 28 -60 19z m51 -43 c3 -21
2 -22 -12 -11 -19 16 -21 44 -3 39 6 -3 14 -15 15 -28z m-24 -56 c9 -24 7 -28
-9 -14 -17 14 -20 30 -6 30 5 0 12 -7 15 -16z"/>
<path d="M323 1762 c-36 -45 -86 -132 -77 -132 4 0 13 8 20 18 12 15 13 14 14
-11 0 -23 4 -28 22 -25 12 2 24 10 26 18 4 12 3 13 -10 3 -8 -7 -18 -10 -21
-6 -12 11 -8 23 8 23 8 0 15 7 15 15 0 8 6 12 13 9 8 -3 20 3 28 12 12 15 12
16 -9 10 -25 -8 -32 11 -7 20 8 4 15 12 15 20 0 17 12 18 28 2 22 -22 13 4
-12 32 l-24 29 -29 -37z m14 -33 c-8 -5 -20 -22 -27 -39 -7 -16 -16 -30 -21
-30 -17 0 -4 30 36 82 15 20 21 23 24 11 1 -9 -4 -20 -12 -24z"/>
<path d="M1920 1663 c0 -14 2 -15 9 -4 6 10 10 10 16 1 4 -6 2 -17 -5 -23 -9
-9 -14 -8 -24 6 -18 24 -23 21 -21 -10 3 -40 4 -43 16 -43 8 0 7 5 -1 15 -16
19 -5 32 13 16 20 -16 45 14 31 37 -15 23 -34 26 -34 5z"/>
<path d="M215 1580 c-10 -22 -16 -43 -13 -45 3 -3 11 8 18 25 8 20 18 29 27
26 8 -4 17 -6 19 -6 2 0 4 -9 4 -19 0 -22 -17 -37 -28 -26 -4 4 -2 10 5 12 7
2 9 11 6 19 -5 13 -7 13 -14 2 -15 -24 -10 -48 10 -48 12 0 26 12 35 30 14 30
14 31 -10 42 -13 6 -24 15 -24 20 0 21 -19 4 -35 -32z"/>
<path d="M1976 1600 c3 -14 8 -34 10 -45 3 -13 0 -11 -11 8 -8 15 -23 27 -31
27 -13 0 -15 -6 -10 -27 4 -16 7 -34 8 -40 2 -16 13 -16 38 -3 12 6 21 7 25 0
3 -5 -9 -17 -27 -26 -18 -10 -28 -19 -21 -21 7 -2 22 1 34 7 26 15 36 5 42
-40 2 -19 2 -27 0 -18 -7 27 -32 43 -45 30 -9 -9 -9 -18 0 -37 8 -16 8 -25 1
-25 -6 0 -8 -4 -4 -10 4 -6 15 -6 31 0 14 6 31 7 36 4 8 -5 9 3 5 24 -4 18 -3
32 2 32 14 0 21 42 10 62 -5 10 -19 18 -30 18 -14 0 -27 15 -44 53 -14 28 -23
41 -19 27z m-6 -57 c0 -13 -3 -13 -15 -3 -8 7 -15 19 -15 27 0 13 3 13 15 3 8
-7 15 -19 15 -27z m90 -69 c0 -13 -4 -24 -9 -24 -11 0 -22 40 -15 52 9 15 24
-2 24 -28z m-40 -60 c0 -8 -4 -14 -10 -14 -5 0 -10 9 -10 21 0 11 5 17 10 14
6 -3 10 -13 10 -21z"/>
<path d="M156 1418 c-10 -35 -20 -71 -22 -80 -3 -10 -1 -18 3 -18 5 0 15 27
22 60 8 33 18 60 23 60 6 0 8 -6 5 -14 -21 -54 -28 -99 -17 -110 8 -8 15 -6
26 8 12 17 12 22 -3 38 -15 17 -15 18 1 18 9 0 22 11 28 25 6 14 15 25 20 25
4 0 8 5 8 11 0 6 -8 9 -17 7 -10 -2 -18 -11 -18 -21 0 -9 -4 -16 -10 -14 -5 1
-8 12 -7 25 2 12 -2 22 -8 22 -6 0 -8 5 -5 10 3 6 2 10 -3 10 -5 0 -17 -28
-26 -62z m34 -84 c0 -8 -5 -12 -10 -9 -6 4 -8 11 -5 16 9 14 15 11 15 -7z"/>
<path d="M2060 1350 c0 -22 -2 -23 -11 -7 -12 21 -47 23 -55 3 -3 -8 0 -25 7
-38 7 -13 12 -29 11 -36 -2 -8 7 -11 27 -10 16 2 31 -1 33 -7 2 -5 -12 -11
-29 -13 -48 -5 -40 -22 8 -20 l41 1 -7 55 c-4 31 -11 65 -15 76 -8 20 -9 20
-10 -4z m-29 -19 c7 11 9 10 9 -3 0 -10 7 -18 15 -18 22 0 18 -17 -4 -23 -24
-6 -41 10 -40 38 0 12 3 15 6 6 5 -11 7 -11 14 0z"/>
<path d="M130 1292 c0 -12 -9 -26 -20 -32 -11 -6 -23 -22 -26 -37 -5 -20 -2
-30 17 -44 l24 -18 -29 -30 c-17 -17 -24 -31 -18 -31 7 0 15 7 18 15 13 33 24
12 25 -47 1 -75 17 -127 19 -63 2 34 3 36 9 15 8 -29 34 -34 39 -7 5 25 -17
49 -39 42 -13 -4 -19 -1 -19 9 0 11 9 16 30 16 17 0 30 5 30 10 0 6 -14 10
-31 10 -20 0 -29 4 -26 13 2 6 16 12 30 12 16 -1 27 5 27 12 0 8 -12 13 -30
13 -20 0 -30 5 -30 15 0 11 8 14 30 10 17 -3 30 -1 30 5 0 5 -11 10 -25 10
-32 0 -41 21 -27 63 l10 32 1 -37 c1 -43 25 -53 36 -15 4 12 9 30 11 40 4 13
-1 17 -18 17 -13 0 -29 5 -36 12 -9 9 -12 7 -12 -10z m50 -36 c0 -8 -4 -18
-10 -21 -5 -3 -10 3 -10 14 0 12 5 21 10 21 6 0 10 -6 10 -14z m-64 -53 c-5
-12 -10 -13 -17 -6 -8 8 -7 18 2 34 12 21 14 22 17 6 2 -10 1 -25 -2 -34z m57
-178 c4 -8 2 -17 -3 -20 -6 -4 -10 3 -10 14 0 25 6 27 13 6z"/>
<path d="M2080 1158 c0 -28 -3 -48 -7 -44 -5 4 -8 24 -8 44 0 30 -4 37 -20 37
-12 0 -21 -8 -23 -20 l-4 -20 15 20 c15 19 16 18 15 -22 0 -30 -5 -43 -14 -43
-30 0 -12 -18 21 -22 l35 -4 0 63 c0 35 -2 63 -5 63 -3 0 -5 -23 -5 -52z"/>
<path d="M2032 1057 c-6 -7 -12 -25 -14 -41 -3 -26 1 -31 30 -37 35 -7 34 -8
45 64 5 31 0 34 -19 10 -13 -17 -13 -17 -14 0 0 20 -13 22 -28 4z m35 -27 c19
0 11 -24 -9 -28 -17 -3 -32 24 -21 41 5 8 8 8 11 -1 2 -7 10 -12 19 -12z"/>
<path d="M1946 663 l-28 -28 6 25 c5 19 2 17 -13 -10 -16 -29 -19 -31 -24 -15
-4 19 -5 19 -6 0 0 -12 -19 -38 -40 -58 -22 -21 -43 -47 -46 -57 -4 -11 -11
-18 -16 -15 -5 4 -9 1 -9 -6 0 -7 -17 -27 -37 -45 -27 -24 -39 -30 -45 -21 -6
9 -8 9 -8 -1 0 -8 -9 -26 -21 -40 -13 -17 -18 -34 -15 -48 5 -17 -1 -28 -25
-44 -16 -12 -28 -25 -24 -28 3 -3 19 4 35 16 16 12 44 22 62 22 18 0 44 9 58
20 14 11 32 20 40 21 10 0 11 2 2 6 -11 4 35 42 69 56 10 4 9 6 -3 6 -17 1
-17 2 0 20 35 39 47 56 47 65 0 5 9 12 20 17 l20 8 -20 1 -20 1 20 15 c11 8
18 17 16 21 -2 3 8 21 24 40 26 33 26 35 6 28 -22 -7 -22 -6 -6 24 19 38 17
38 -19 4z"/>
<path d="M277 653 c6 -36 0 -39 -44 -22 l-28 10 25 -28 c14 -15 31 -34 39 -40
12 -11 12 -13 1 -13 -9 0 -7 -5 6 -15 19 -14 19 -14 -1 -15 -17 -1 -16 -3 8
-16 31 -17 36 -26 10 -18 -10 2 -8 -1 5 -7 12 -7 22 -16 22 -21 0 -4 9 -17 20
-28 18 -18 18 -20 3 -21 -13 0 -14 -2 -4 -6 34 -14 80 -52 69 -56 -10 -4 -10
-6 0 -6 8 -1 27 -10 43 -22 16 -11 39 -19 52 -17 12 1 39 -8 58 -20 39 -24 49
-27 49 -14 0 4 -16 16 -35 26 -29 16 -33 22 -24 38 8 15 6 27 -12 53 -13 18
-26 32 -30 30 -9 -6 -79 60 -79 74 0 7 -4 10 -9 6 -5 -3 -12 3 -16 14 -3 11
-23 37 -45 59 -21 22 -40 48 -43 59 -4 16 -5 16 -6 -2 -2 -16 -6 -13 -21 15
l-19 35 6 -32z"/>
<path d="M930 210 c0 -5 7 -10 16 -10 8 0 12 5 9 10 -3 6 -10 10 -16 10 -5 0
-9 -4 -9 -10z"/>
<path d="M826 179 c2 -31 17 -49 42 -49 6 0 11 -3 10 -7 -2 -5 1 -10 6 -13 6
-3 14 10 18 29 8 31 12 33 40 27 17 -3 43 -6 59 -6 16 0 29 -5 29 -11 0 -7
-11 -9 -28 -6 -15 3 -34 2 -41 -2 -19 -12 -9 -45 14 -48 11 -2 14 0 8 3 -25
11 -14 35 15 32 22 -2 26 -7 24 -25 -5 -37 15 -26 22 12 7 34 8 35 54 34 l47
-2 -40 -6 c-31 -5 -40 -10 -40 -26 0 -25 42 -34 51 -11 9 23 24 20 24 -4 0
-11 5 -20 10 -20 6 0 10 15 10 34 0 32 15 45 53 46 18 0 5 -19 -15 -22 -30 -4
-30 -32 0 -36 30 -5 51 14 45 38 -3 11 -1 20 5 20 12 0 22 -24 22 -51 0 -10 5
-19 11 -19 6 0 9 15 7 37 -2 29 1 38 17 43 11 4 23 6 28 3 13 -8 7 -22 -14
-28 -19 -7 -20 -7 -2 -21 21 -16 63 -18 63 -3 0 6 -9 8 -20 4 -11 -4 -20 -2
-20 4 0 6 5 11 11 11 5 0 9 8 7 18 -1 9 1 23 6 31 7 11 4 13 -15 8 -127 -32
-347 -33 -459 -2 -71 19 -66 20 -64 -16z m48 5 c18 -7 21 -30 6 -39 -15 -9
-40 14 -33 31 6 16 6 16 27 8z m223 -80 c-9 -9 -28 6 -21 18 4 6 10 6 17 -1 6
-6 8 -13 4 -17z m128 16 c-3 -5 -13 -10 -21 -10 -8 0 -14 5 -14 10 0 6 9 10
21 10 11 0 17 -4 14 -10z"/>
</g>
</svg>
